{
	"asset":{
		"generator":"Khronos glTF Blender I/O v4.3.47",
		"version":"2.0"
	},
	"extensionsUsed":[
		"KHR_materials_clearcoat",
		"KHR_materials_specular",
		"KHR_materials_sheen",
		"KHR_materials_ior"
	],
	"scene":0,
	"scenes":[
		{
			"name":"Scene",
			"nodes":[
				0
			]
		}
	],
	"nodes":[
		{
			"mesh":0,
			"name":"Cube"
		}
	],
	"materials":[
		{
			"doubleSided":true,
			"extensions":{
				"KHR_materials_clearcoat":{
					"clearcoatFactor":0.6090909242630005,
					"clearcoatRoughnessFactor":0.802727222442627
				},
				"KHR_materials_specular":{
					"specularColorFactor":[
						0.9763767719268799,
						0.7620875835418701,
						1.0
					]
				},
				"KHR_materials_sheen":{
					"sheenColorFactor":[
						0.33053532242774963,
						0.33053532242774963,
						0.33053532242774963
					],
					"sheenRoughnessFactor":0.5909091234207153
				},
				"KHR_materials_ior":{
					"ior":3.8499999046325684
				}
			},
			"name":"Material",
			"pbrMetallicRoughness":{
				"baseColorFactor":[
					0.2076677680015564,
					0.1747322976589203,
					0.18891564011573792,
					1
				],
				"metallicFactor":0,
				"roughnessFactor":0.8454545736312866
			}
		}
	],
	"meshes":[
		{
			"name":"Cube",
			"primitives":[
				{
					"attributes":{
						"POSITION":0,
						"NORMAL":1,
						"TEXCOORD_0":2
					},
					"indices":3,
					"material":0
				}
			]
		}
	],
	"accessors":[
		{
			"bufferView":0,
			"componentType":5126,
			"count":52,
			"max":[
				3.8329732418060303,
				1.0107698440551758,
				6.813677787780762
			],
			"min":[
				-3.7784454822540283,
				-1.01877760887146,
				-6.725656509399414
			],
			"type":"VEC3"
		},
		{
			"bufferView":1,
			"componentType":5126,
			"count":52,
			"type":"VEC3"
		},
		{
			"bufferView":2,
			"componentType":5126,
			"count":52,
			"type":"VEC2"
		},
		{
			"bufferView":3,
			"componentType":5123,
			"count":78,
			"type":"SCALAR"
		}
	],
	"bufferViews":[
		{
			"buffer":0,
			"byteLength":624,
			"byteOffset":0,
			"target":34962
		},
		{
			"buffer":0,
			"byteLength":624,
			"byteOffset":624,
			"target":34962
		},
		{
			"buffer":0,
			"byteLength":416,
			"byteOffset":1248,
			"target":34962
		},
		{
			"buffer":0,
			"byteLength":156,
			"byteOffset":1664,
			"target":34963
		}
	],
	"buffers":[
		{
			"byteLength":1820,
			"uri":"test_model.bin"
		}
	]
}
